<?xml version="1.0" encoding="utf-8"?>
<svg version="1.1" id="layer" xmlns="http://www.w3.org/2000/svg" xmlns:xlink="http://www.w3.org/1999/xlink" x="0px" y="0px"
	 viewBox="0 0 652 652" style="enable-background:new 0 0 652 652;" xml:space="preserve">
<style type="text/css">
	.st0{fill:#FFFFFF;}
	.st1{fill:#00A6E9;}
	.st2{clip-path:url(#SVGID_2_);fill:url(#SVGID_3_);}
	.st3{fill:#A3A4A4;}
	.st4{clip-path:url(#SVGID_5_);fill:url(#SVGID_6_);}
</style>
<g>
	<path class="st0" d="M569.3,328.8c0,138.1-111.9,250-250,250c-138.1,0-250-111.9-250-250c0-138.1,111.9-250,250-250
		C457.3,78.8,569.3,190.8,569.3,328.8"/>
	<path class="st1" d="M560.9,328.8c0,133.4-108.2,241.6-241.6,241.6c-133.4,0-241.6-108.2-241.6-241.6
		c0-133.4,108.2-241.6,241.6-241.6C452.7,87.2,560.9,195.4,560.9,328.8"/>
</g>
<g>
	<defs>
		<path id="SVGID_1_" d="M77.7,328.8c0,133.4,108.2,241.6,241.6,241.6c133.4,0,241.6-108.2,241.6-241.6
			c0-133.4-108.2-241.6-241.6-241.6C185.8,87.2,77.7,195.4,77.7,328.8"/>
	</defs>
	<clipPath id="SVGID_2_">
		<use xlink:href="#SVGID_1_"  style="overflow:visible;"/>
	</clipPath>

		<radialGradient id="SVGID_3_" cx="-83.2867" cy="708.921" r="5.7729" gradientTransform="matrix(41.8521 0 0 -41.8521 3805.0068 29998.6855)">
		<stop  offset="0" style="stop-color:#00A6E9"/>
		<stop  offset="0.2502" style="stop-color:#00A1E5"/>
		<stop  offset="0.5517" style="stop-color:#0092D8"/>
		<stop  offset="0.8784" style="stop-color:#007AC3"/>
		<stop  offset="1" style="stop-color:#006FB9"/>
	</radialGradient>
	<rect x="77.7" y="87.2" class="st2" width="483.2" height="483.2"/>
</g>
<g>
	<path class="st0" d="M169.9,406.7l-11.7-0.5c-3.6-7.5-6.7-15.3-9.2-23.3l8.2-8.2l-2.5-10.1l-36.1,37.1l4.5,11.4l51.9,2.6
		L169.9,406.7z M142.7,389.4c1.9,5.6,4.1,11.1,6.5,16.5l-22.1-0.8L142.7,389.4z"/>
	<polygon class="st0" points="151.1,338.9 106.2,342.9 107,352.1 151.9,348.2 	"/>
	<path class="st0" d="M158.5,278.6l4-11.5l-22.6,9.8c0.1-0.8,0.2-1.6,0.2-2.4c0-5.6-3.2-10.9-10.1-12.7c-1.6-0.4-3.1-0.6-4.4-0.6
		c-7.7,0-11.1,6.4-13.3,15.1c-2.3,9-4.1,18.4-5.2,27.9l0,0.3l44.5,7.9l1.2-9.2l-17.4-3.1c0.7-4.3,1.5-8.6,2.4-12.7L158.5,278.6z
		 M127.8,298.7l-11.8-2.1c0.9-5.8,2.1-11.5,3.5-17.2c1.5-5.9,3.1-8.9,6.4-8.9c0.6,0,1.2,0.1,1.9,0.3c3.2,0.8,4.2,2.5,4.2,5.4
		c0,1.7-0.4,3.7-1,6.2C129.8,287.8,128.7,293.2,127.8,298.7"/>
	<polygon class="st0" points="260.4,170.9 240,130.4 228.3,135.6 231.3,170.5 203.3,149.5 192.6,156.8 216.3,195.5 223,190.5
		205,161.1 234.5,183.2 240.4,179.9 237.1,143.3 252.6,174 	"/>

		<rect x="281.3" y="118.2" transform="matrix(0.9844 -0.1757 0.1757 0.9844 -20.2933 52.4358)" class="st0" width="9.3" height="45.1"/>
	<path class="st0" d="M359.2,156.6c-9.3-2.1-18.7-3.5-28.4-4.1l2.9-36.7l-9.2-0.4l-3.5,45.1l0.3,0c12.5,0.1,24.7,1.6,36.6,4.4
		l0.3,0.1l1.3-8.2L359.2,156.6z"/>
	<path class="st0" d="M430.6,146.5c-11.4-6.9-23.5-12.9-36.4-17.7l-0.2-0.1L375.5,170l0.3,0.1c12.2,4.3,23.7,10,34.2,16.7l0.3,0.2
		l3.8-7.1l-0.2-0.1c-8.3-5.2-17.1-9.9-26.4-13.8l4.6-10.2c7.9,3.3,15.5,7.1,22.7,11.4l0.3,0.2l3.8-7.1l-0.2-0.1
		c-7.4-4.3-15.1-8.2-23.2-11.6l4-8.9c9.6,4.1,18.8,8.8,27.4,14.1l0.3,0.2l3.8-7.1L430.6,146.5z"/>
	<path class="st0" d="M472.3,177.5c-1.8-1.8-8.7-8.9-16.3-8.9c-2.8,0-5.7,1-8.4,3.6c-2.2,2.2-3.3,4.9-3.3,7.9c0,3.9,1.8,8.3,5.3,13
		l6.4,8.6c2.5,3.3,3.7,6,3.7,8c0,1.1-0.3,1.9-1.1,2.6c-0.8,0.7-1.8,1.1-2.9,1.1c-2.9,0-6.8-2.2-10.4-5.8c-5.4-5.4-6.7-9.7-6.7-12.9
		c0-1.7,0.4-3.1,0.8-4.3l0.1-0.2l-7.8-4.8l-0.1,0.3c-0.8,1.4-1.9,4.1-1.9,7.8c0,5,2.1,11.8,9.8,19.6c5.4,5.5,11.4,9.3,17.2,9.3h0
		c3.2,0,6.3-1.2,9.1-3.9c2.4-2.4,3.5-5.1,3.5-8.1c0-3.9-1.9-8.2-5.3-12.8l-6.2-8.6c-3.2-4.4-4.2-6.9-4.2-8.4c0-1,0.4-1.5,0.9-2.1
		c0.8-0.8,1.7-1.1,2.8-1.1c2.8,0,6.4,2.4,9.3,5.4c5,5,6.6,8.9,6.6,12c0,1.5-0.4,2.8-1,4L472,199l7.8,4.6l0.1-0.3
		c0.7-1.3,1.9-3.9,1.9-7.4C481.9,191.4,479.9,185.2,472.3,177.5"/>
	<path class="st3" d="M373.1,266.4c0,0-35.7-11.7-72.5-22.5c7.3-3.6-29-8.5-32.5-9.6l0,0c-76.1-22.4-173.8-51.9-174.9-52.4
		c-6.4-3.1-22.3,6-25.9,9.3c-4.5,4,4.5,8.4,4.5,8.4S297,314.2,302.9,314.1C333.5,313.1,385.3,270.5,373.1,266.4"/>
	<path class="st3" d="M476.9,300c50.1,15.5,123.8,36.3,125.3,36.9c3.9,1.5,1.8,5-5,7.5c-12,4.4-19.6,5-19.6,5s-98.3-11.8-156.5-15.8
		C443.4,326.4,464.1,314.6,476.9,300"/>
	<path class="st0" d="M594.2,330.7c-1.1-0.4-38.5-11-77.6-22.5c5.6-5.5,7.4-15.7,4.1-25.9c-4-11.9-13.8-19.5-22.7-18.2
		c0.4-3,0.3-5.7-0.3-7.7c-0.7-2.7-2-8.7-9.5-8.5c-7.4,0.2-34.4,1.1-35.4,1.1c-1-0.1-18-3.6-30.3-0.4c-3.6,0.9-18.3,8.2-36.2,17.7
		c-0.2-0.2-0.5-0.3-0.9-0.4c0,0-12.3-3.6-31.6-9.3c6.4-7.9,8.3-20.9,3.9-33.8c-6-17.9-21.5-28.8-34.8-24.4
		c-9.9,3.3-15.7,14.2-15.5,27c-9.5,4.5-18.7,9.3-21.3,11.2c0,0-173.2-51.6-174.3-52.2c-6.5-3.1-22.5,6.1-26.2,9.4
		c-4.5,4.1,4.5,8.5,4.5,8.5s181.8,92.2,216.6,107.4c-18.4,10.4-32.8,18.7-37,21.6c-14,9.6-15.9,2.7-16.4,2.5
		c-0.9-0.3-18.1-30.4-20.4-31.1c-2.2-0.6-11.6,6.6-13,10.4c-0.8,1.9-2,15.1-2.9,27.6c-13.1-0.5-25.9-1-28.1-1.1
		c-4.3-0.2-7.1,1.2-8.6,1.9c-1.4,0.7-3,2-4.5,3.6c-1.5,1.7-1,4.3,1.8,5.1c1.2,0.4,24.6,6.6,37.9,10.1c-0.2,2-0.2,3.2-0.2,3.2
		c-0.9,5,0.1,10.9,4.5,11.1c86,8.1,169-26.4,214.5-45.8c57.7,4.8,135.5,14.2,135.5,14.2s7.6-0.6,19.6-5
		C596,335.6,598.1,332.2,594.2,330.7"/>
	<path class="st3" d="M512.6,283.5c-1-3.1-8.4-2-10.7-1.3c-2.3,0.8-3,3.7-2,6.8c1,3.1,3.4,5.1,5.7,4.4
		C507.9,292.7,513.6,286.6,512.6,283.5"/>
	<path class="st3" d="M496.3,290.4c-0.2-0.7-0.4-1.5-0.5-2.1l0,0.1c-5.2,3-9.3,4.8-12.5,5.9c-6.1,7.6-14.2,15.2-24.3,21.9l-0.7,0.5
		c11.6-0.9,47.7-16.1,50.1-20.3c-0.6,0.5-1.2,0.9-2,1.2C502.5,298.8,498,295.6,496.3,290.4"/>
	<path class="st3" d="M351.2,316.7l2.3-1.1c1-0.4,1.8-1.7,1.8-2.8l0-7c0-1.1-0.8-1.7-1.8-1.2l-2.4,1.2c-1,0.4-1.8,1.7-1.8,2.8v7
		C349.4,316.6,350.2,317.1,351.2,316.7"/>
	<path class="st3" d="M361.1,311.6l2.3-1.1c1-0.5,1.8-1.7,1.8-2.9v-7c0-1.1-0.8-1.7-1.8-1.2l-2.4,1.1c-1,0.4-1.8,1.7-1.8,2.8l0,7
		C359.3,311.6,360.1,312.1,361.1,311.6"/>
	<path class="st3" d="M324.5,319.1l-2.3,1.1c-1,0.5-1.8,1.7-1.8,2.8l0,7c0,1.1,0.8,1.7,1.8,1.2l2.4-1.1c1-0.5,1.9-1.7,1.8-2.8l0-7
		C326.4,319.2,325.5,318.6,324.5,319.1"/>
	<path class="st3" d="M334.4,314.1l-2.4,1.1c-1,0.4-1.8,1.7-1.8,2.8l0,7c0,1.1,0.8,1.7,1.9,1.2l2.4-1.1c1-0.4,1.8-1.7,1.8-2.8v-7
		C336.3,314.2,335.4,313.6,334.4,314.1"/>
	<path class="st3" d="M293.5,325.5l-2.4,1.1c-1,0.4-1.8,1.7-1.8,2.8v7c0,1.1,0.8,1.7,1.9,1.2l2.3-1.2c1-0.4,1.8-1.7,1.8-2.8l0-7
		C295.4,325.6,294.6,325,293.5,325.5"/>
	<path class="st3" d="M303.4,320.5l-2.4,1.2c-1,0.4-1.8,1.7-1.8,2.8v7c0,1.1,0.8,1.7,1.8,1.2l2.4-1.2c1-0.4,1.8-1.7,1.8-2.8l0-7
		C305.3,320.6,304.4,320,303.4,320.5"/>
	<path class="st3" d="M380.3,302l2.4-1.2c1-0.4,1.8-1.7,1.8-2.9v-7c0-1.1-0.8-1.7-1.9-1.2l-2.4,1.2c-1,0.4-1.8,1.7-1.8,2.8v7
		C378.4,301.9,379.2,302.5,380.3,302"/>
	<path class="st3" d="M390.1,297l2.4-1.1c1-0.5,1.8-1.7,1.8-2.8l0-7c0-1.1-0.8-1.7-1.9-1.2l-2.4,1.1c-1,0.4-1.8,1.7-1.8,2.8l0,7
		C388.3,296.9,389.1,297.4,390.1,297"/>
	<path class="st3" d="M419.7,261.6c11-3.7,26.9-8.8,31.7-9.3c0,0-7.6-0.9-14.9-1.2c-11.9-0.5-16.3,2.5-16.3,2.5
		S417.9,262.2,419.7,261.6"/>
	<path class="st3" d="M337.1,238.4c3.3-1.1,11.5-9.9,10-14.4c-1.5-4.5-12.1-2.9-15.5-1.8c-3.3,1.1-4.3,5.4-2.8,9.9
		C330.4,236.5,333.8,239.5,337.1,238.4"/>
	<path class="st3" d="M341.1,242.7c-0.8,0.7-1.8,1.3-2.9,1.7c-5.6,1.9-12.2-2.7-14.7-10.3c-0.4-1-0.6-2.1-0.8-3.1l0,0.1
		c-19,10.8-27.6,11.6-31.3,10.4c-2.3,7.6-12.3,23.4-22.8,30.7C285.4,270.8,337.8,248.7,341.1,242.7"/>
	<path class="st3" d="M491.1,254.7c-3.3,6.6-6.4,10.1-12.8,14.8c-7.7,5.6-47,31.8-174.1,78.4c-32.1,11.8-67.3,17.3-80,14.8h0
		l-0.2-0.1c-0.4-0.1-0.8-0.2-1.2-0.3c-0.9-0.2-2.1-0.5-3.5-0.9c-0.2,3.8,0.7,7.4,3.9,7.7c86.5,8.2,170.6-29.2,212.8-47.2
		C478.6,303.7,495.1,267,491.1,254.7"/>
	<path class="st0" d="M141.1,495.7C185.7,543.2,249,573,319.3,573c110.4,0,203.6-73.3,233.8-173.9c-36.7-9.6-75.1-14.7-114.8-14.7
		C324.6,384.4,220.6,426.4,141.1,495.7"/>
</g>
<g>
	<defs>
		<path id="SVGID_4_" d="M143,494c44.1,47,106.7,76.4,176.2,76.4c109.2,0,201.5-72.5,231.4-172c-35.9-9.2-73.6-14.1-112.4-14.1
			C325.5,384.4,222.3,425.7,143,494"/>
	</defs>
	<clipPath id="SVGID_5_">
		<use xlink:href="#SVGID_4_"  style="overflow:visible;"/>
	</clipPath>

		<linearGradient id="SVGID_6_" gradientUnits="userSpaceOnUse" x1="-80.5517" y1="720.5807" x2="-74.7788" y2="720.5807" gradientTransform="matrix(6.7203 29.1091 29.1091 -6.7203 -20105.7031 7585.0684)">
		<stop  offset="0" style="stop-color:#FFFFFF"/>
		<stop  offset="1" style="stop-color:#00B8EE"/>
	</linearGradient>
	<polygon class="st4" points="530,295 591.4,561 163.7,659.8 102.3,393.8 	"/>
</g>
<g>
	<path class="st0" d="M507.3,126.8c-6.7,0-12.1,5.5-12.1,12.3c0,6.8,5.4,12.3,12.1,12.3c6.7,0,12.1-5.5,12.1-12.3
		C519.4,132.3,514,126.8,507.3,126.8 M507.3,153.5c-7.9,0-14.3-6.4-14.3-14.3c0-7.9,6.4-14.3,14.3-14.3c7.9,0,14.3,6.4,14.3,14.3
		C521.6,147.1,515.2,153.5,507.3,153.5"/>
	<path class="st0" d="M504.1,132.7v5.7h3.4c2.9,0,4.2-0.9,4.2-2.9s-1.3-2.8-4.2-2.8H504.1 M514.6,147.4h-2.4l-4.7-7.3h-3.4v7.3h-2
		V131h6.4c3.6,0,5.4,1.5,5.4,4.6c0,2.3-1.6,4.1-4.2,4.5L514.6,147.4"/>
</g>
</svg>
